<?xml version="1.0" encoding="utf-8"?>
<!-- Generator: Adobe Illustrator 21.0.0, SVG Export Plug-In . SVG Version: 6.00 Build 0)  -->
<svg version="1.1" id="Слой_1" xmlns="http://www.w3.org/2000/svg" xmlns:xlink="http://www.w3.org/1999/xlink" x="0px" y="0px"
	 viewBox="0 0 330.9 300" style="enable-background:new 0 0 330.9 300;" xml:space="preserve">
<style type="text/css">
	.st0{fill:#46B9CC;}
</style>
<path class="st0" d="M229.2,50.9V36.1h13.4l4.8-4.8V4.8L242.6,0h-74.7l-4.8,4.8v26.6l4.8,4.8h13.4v14.8
	C124.5,61.8,79.6,112,79.6,174.3c0,69.5,56.2,125.7,125.7,125.7c69.5,0,125.7-56.2,125.7-125.7C330.9,112,286.1,61.8,229.2,50.9z
	 M181.3,16.1v11.3h-9.3V8.8h66.7v18.6h-9.4V16.1h-8.8v11.3h-10.7V16.1h-8.8v11.3H190V16.1H181.3z M220.4,36.1v11.8h-30.3V36.1H220.4
	z M205.3,291.2c-64.5,0-116.9-52.4-116.9-116.9c0-64.5,52.4-116.9,116.9-116.9s116.9,52.4,116.9,116.9
	C322.2,238.8,269.7,291.2,205.3,291.2z M205.3,78.2c-53,0-96.1,43.1-96.1,96.1c0,53,43.1,96.1,96.1,96.1c53,0,96.1-43.1,96.1-96.1
	C301.4,121.3,258.3,78.2,205.3,78.2z M270,232.9l-14.8-14.8l-6.2,6.2l14.8,14.8c-14.5,13.1-33.4,21.4-54.2,22.5v-21h-8.8v21
	c-20.8-1-39.7-9.4-54.2-22.5l14.8-14.8l-6.2-6.2l-14.8,14.8c-13.1-14.5-21.4-33.4-22.5-54.2h21v-8.8h-21c1-20.8,9.4-39.7,22.5-54.2
	l14.8,14.8l6.2-6.2l-14.8-14.8c15.5-14,36.1-22.6,58.6-22.6s43.1,8.6,58.6,22.6L249,124.4l6.2,6.2l14.8-14.8
	c14,15.5,22.6,36.1,22.6,58.6C292.6,196.8,284.1,217.4,270,232.9z M209.7,169.9V94.3h-8.8v84.4h84.4v-8.8H209.7z M214.4,63.9
	c-3-0.2-6.1-0.4-9.1-0.4v8.8c2.8,0,5.6,0.1,8.4,0.3L214.4,63.9z M229.5,66.2c-3-0.7-6-1.2-9-1.6l-1.2,8.7c2.8,0.4,5.6,0.9,8.3,1.5
	L229.5,66.2z M275,88.6c-11.7-9.7-25-16.7-39.6-20.8l-2.4,8.4c13.4,3.8,25.6,10.3,36.4,19.2L275,88.6z M63.9,169.9H0v8.8h63.9V169.9
	z M69,150H15.8v8.8H69V150z M69,189.9H15.8v8.8H69V189.9z M29.1,218.6h44.4v-8.8H29.1V218.6z M29.1,138.9h44.4v-8.8H29.1V138.9z"/>
</svg>
