<?xml version="1.0" encoding="utf-8"?>
<!-- Generator: Adobe Illustrator 21.0.0, SVG Export Plug-In . SVG Version: 6.00 Build 0)  -->
<svg version="1.1" id="Слой_1" xmlns="http://www.w3.org/2000/svg" xmlns:xlink="http://www.w3.org/1999/xlink" x="0px" y="0px"
	 viewBox="0 0 300.8 300" style="enable-background:new 0 0 300.8 300;" xml:space="preserve">
<style type="text/css">
	.st0{fill:#46B9CC;}
</style>
<path class="st0" d="M203.7,208.8l49.1,49.1l5.9-5.9l-49.1-49.1L203.7,208.8z M93.1,201.7l5.9,5.9L208.4,98.2l-5.9-5.9L93.1,201.7z
	 M78.9,213.1c-0.8-1.2-2.1-2-3.6-2H45.2c-1.5,0-2.8,0.8-3.6,2l-15.1,25.1c-0.8,1.3-0.8,3,0,4.3l15.1,25.1c0.8,1.2,2.1,2,3.6,2h30.2
	c1.5,0,2.8-0.8,3.6-2L94,242.6c0.8-1.3,0.8-3,0-4.3L78.9,213.1z M73,261.4H47.5l-12.6-21l12.6-21H73l12.6,21L73,261.4z M21.4,61.6
	c0.6,1,1.5,1.7,2.6,2l19,4.7l0.2,0.2l63.7,63.7l5.9-5.9L48.1,61.5c-0.5-0.5-1.2-0.9-1.9-1.1l-18.4-4.6L10.2,25L25.8,9.4L56.6,27
	l4.6,18.4c0.2,0.7,0.6,1.4,1.1,1.9l64.7,64.7l5.9-5.9L69.1,42.3l-4.7-19c-0.3-1.1-1-2.1-2-2.6L27.2,0.6C26.5,0.2,25.8,0,25.1,0
	C24,0,23,0.5,22.2,1.2L2.1,21.4c-1.3,1.3-1.6,3.4-0.7,5L21.4,61.6z M289.3,232.4l-60.2-60.2c-1.6-1.6-4.3-1.6-5.9,0l-2.5,2.5
	c-2.5,2.5-6.7,2.5-9.2,0c-1.2-1.2-1.9-2.9-1.9-4.6c0-1.7,0.6-3.3,1.8-4.5l0.1-0.1l2.5-2.5c0.8-0.8,1.2-1.8,1.2-2.9s-0.4-2.2-1.2-2.9
	l-12.1-12.1l27.3-27.3l0.5,0.1c3.8,0.8,7.7,1.2,11.6,1.2c0.1,0,0.1,0,0.2,0c15.8,0,30.6-6.1,41.8-17.2c11.2-11.2,17.4-26,17.5-41.8
	c0-5-0.6-9.9-1.8-14.8c-0.6-2.2-2.8-3.6-5.1-3c-0.7,0.2-1.4,0.6-1.9,1.1l-31.7,31.6l-25.7-8.6l-8.6-25.7l31.7-31.7
	c0.8-0.8,1.2-1.8,1.2-2.9c0-1.1-0.4-2.2-1.2-2.9c-0.5-0.5-1.2-0.9-2-1.1c-31.7-8-64,11.2-72,42.9c-1.2,4.8-1.8,9.8-1.8,14.7
	c0,3.9,0.4,7.8,1.2,11.6l0.1,0.5l-0.3,0.3L72.3,182.3l-0.5-0.1c-3.8-0.8-7.7-1.2-11.6-1.2c-32.8,0-59.5,26.7-59.5,59.5
	c0,32.8,26.7,59.5,59.5,59.5c32.8,0,59.5-26.7,59.5-59.5c0-3.9-0.4-7.8-1.2-11.6l-0.1-0.5l27.3-27.3l12.1,12.1
	c1.6,1.6,4.3,1.6,5.9,0l2.5-2.5c1.3-1.3,2.9-1.9,4.6-1.9s3.3,0.6,4.6,1.9c2.5,2.5,2.5,6.6,0,9.2l-2.5,2.5c-1.6,1.6-1.6,4.3,0,5.9
	l60,60c15.4,15.6,40.6,15.7,56.2,0.3c7.5-7.5,11.7-17.4,11.8-28C300.9,249.9,296.8,239.9,289.3,232.4z M110.9,224.1
	c-1,1-1.5,2.5-1.1,4c3.4,13.3,1.4,27.2-5.6,39s-18.2,20.2-31.5,23.6c-4.2,1.1-8.5,1.6-12.7,1.6c-23,0-44-15.5-49.9-38.8
	c-7-27.5,9.7-55.6,37.2-62.6c8.3-2.1,17.1-2.1,25.4,0c1.4,0.3,2.9-0.1,4-1.1l114-114c1-1,1.5-2.5,1.1-4c-7-27.2,9.5-54.9,36.7-61.9
	c5.2-1.3,10.5-1.8,15.8-1.5l1.9,0.1l-27.9,27.9c-1.1,1.1-1.5,2.8-1,4.3l10.1,30.2c0.4,1.2,1.4,2.2,2.6,2.6L260,83.5
	c1.5,0.5,3.1,0.1,4.3-1l27.9-27.9l0.1,1.9c0.1,1,0.1,1.9,0.1,2.9c0.1,28-22.6,51-50.6,51.1c-4.4,0-8.7-0.5-12.9-1.6
	c-1.3-0.3-2.7,0-3.7,0.9l-0.2,0.2L110.9,224.1z M240.8,284.1c-0.8-0.6-1.4-1.2-2-1.8l-57-57l0.5-0.6c2.5-3,3.8-6.9,3.4-10.8
	c-0.3-3.9-2.2-7.5-5.2-10.1c-5.5-4.6-13.5-4.6-19.1,0l-0.6,0.5l-9.2-9.2l44.4-44.3l9.2,9.2l-0.5,0.6c-5.3,6.3-4.4,15.6,1.8,20.9
	c5.5,4.6,13.5,4.6,19.1,0l0.6-0.5l57,57c0.6,0.6,1.2,1.3,1.8,2l0.5,0.6l-44.1,44.1L240.8,284.1z M272,289.5c-3.5,1.3-7.3,2-11,2
	c0,0,0,0,0,0c-3.8,0-7.5-0.7-11-2l-1.2-0.5l41.1-41.1l0.5,1.2c2.9,7.8,2.7,16.3-0.8,24C286.1,280.8,279.9,286.6,272,289.5z"/>
</svg>
