<?xml version="1.0" encoding="utf-8"?>
<!-- Generator: Adobe Illustrator 21.0.0, SVG Export Plug-In . SVG Version: 6.00 Build 0)  -->
<svg version="1.1" id="Слой_1" xmlns="http://www.w3.org/2000/svg" xmlns:xlink="http://www.w3.org/1999/xlink" x="0px" y="0px"
	 viewBox="0 0 334.7 300" style="enable-background:new 0 0 334.7 300;" xml:space="preserve">
<style type="text/css">
	.st0{fill:#46B9CC;}
</style>
<path class="st0" d="M102.9,152.7h7.8l0-18.5l1-0.5c1.9-0.8,3.7-1.9,5.4-3l0.9-0.6l9.2,5.3c1.9,1.1,4.2,0.4,5.3-1.5l11.3-19.5
	c0.5-0.9,0.7-2,0.4-3c-0.3-1-0.9-1.9-1.8-2.4l-9.1-5.2v-8.3l9-5.2c0.9-0.5,1.6-1.4,1.8-2.4c0.3-1,0.1-2.1-0.4-3l-11.3-19.5
	c-1.1-1.9-3.5-2.5-5.3-1.5l-9.1,5.3l-0.9-0.6c-1.7-1.2-3.5-2.2-5.4-3l-1-0.5V50.7H80.3v14.5l-1,0.5c-1.9,0.8-3.7,1.9-5.4,3L73,69.3
	L63.9,64c-1.9-1.1-4.2-0.4-5.3,1.5L47.3,85c-0.5,0.9-0.7,2-0.4,3c0.3,1,0.9,1.9,1.8,2.4l9,5.2v8.3l-9,5.2c-0.9,0.5-1.6,1.4-1.8,2.4
	c-0.3,1-0.1,2.1,0.4,3L58.6,134c1.1,1.9,3.5,2.5,5.3,1.5l9.2-5.3l0.9,0.6c1.7,1.2,3.5,2.2,5.4,3l1,0.5v18.5h7.8v-7.4
	c0-0.3,0-0.4,0-0.5v-13.2c0-1.7-1.1-3.1-2.6-3.7c-3.5-1.2-6.6-3.1-9.4-5.4c-1.3-1.1-3.1-1.3-4.5-0.4l-8,4.7l-7.4-12.8l8.1-4.4
	c1.4-0.8,2.2-2.5,1.9-4.1c-0.7-3.6-0.7-7.3,0-10.9c0.5-1.8-0.3-3.7-1.9-4.5l-8.1-4.7l7.4-12.8l8,4.7c1.4,0.8,3.2,0.6,4.5-0.4
	c2.8-2.4,6-4.2,9.4-5.4c1.6-0.5,2.6-2,2.6-3.7v-9.1h14.7v9.3c0,1.7,1.1,3.1,2.6,3.7c3.5,1.2,6.6,3.1,9.4,5.4
	c1.3,1.1,3.1,1.3,4.5,0.4l8-4.7l7.4,12.8l-8.1,4.4c-1.4,0.8-2.2,2.5-1.9,4.1c0.7,3.6,0.7,7.3,0,10.9c-0.5,1.8,0.3,3.7,1.9,4.5
	l8.1,4.7l-7.4,12.8l-8-4.7c-1.4-0.8-3.2-0.6-4.5,0.4c-2.8,2.4-6,4.2-9.4,5.4c-1.6,0.6-2.6,2-2.6,3.7v13c0,0.1,0,0.2,0,0.3
	L102.9,152.7z M260.3,201.5v10h10v-10H260.3z M306.2,87c0.9-0.5,1.6-1.4,1.9-2.4c0.3-1,0.1-2.1-0.5-3l-16.9-29.4
	c-0.5-1-1.4-1.6-2.4-1.9c-1-0.3-2.1-0.2-3,0.3l-15.1,9l-0.9-0.6c-1.7-1.1-3.6-2.2-5.5-3.1l-1-0.5V33.8h-41.7v21.6l-1,0.5
	c-1.9,0.9-3.7,2-5.5,3.1l-0.9,0.6l-15.2-9.1c-1.8-1.1-4.2-0.4-5.3,1.4l-16.9,29.3c-0.7,1-0.9,2.2-0.6,3.2c0.3,1.1,1,2,2,2.5
	l15.2,8.6v8.3l-15.1,8.6c-1.8,1.1-2.5,3.5-1.4,5.3l16.9,29.3c1.1,1.8,3.5,2.5,5.3,1.4l15.2-8.6l0.9,0.6c1.8,1.1,3.6,2.2,5.5,3.1
	l1,0.5v21.6h41.7v-21.6l1-0.5c1.9-0.9,3.7-2,5.5-3.1l0.9-0.6l11.9,7.1l3.9-6.7l-14.3-8.2c-1.4-0.8-3.1-0.7-4.4,0.3
	c-3,2.4-6.3,4.4-9.9,5.9c-1.5,0.6-2.4,2-2.4,3.6v16h-26v-16.3c0-1.6-1-3-2.4-3.6c-3.6-1.5-6.9-3.5-9.9-5.9c-1.2-1-3-1.1-4.4-0.3
	l-14.1,8.1l-13-22.5l14.1-7.9c1.4-0.8,2.2-2.3,2-3.9c-0.6-3.8-0.6-7.6,0-11.4c0.2-1.5-0.6-3.1-2-3.9l-14.1-8.2l13-22.5l14.1,8.1
	c1.4,0.8,3.1,0.7,4.4-0.3c3-2.4,6.3-4.4,9.9-5.9c1.5-0.6,2.4-2,2.4-3.6V41.7h26V58c0,1.6,1,3,2.4,3.6c3.6,1.5,6.9,3.5,9.9,5.9
	c1.2,1,3,1.1,4.4,0.3l14.1-8.1l13,22.5L284.7,90c-1.4,0.8-2.2,2.3-2,3.9c0.6,3.8,0.6,7.6,0,11.4c-0.2,1.5,0.6,3.1,2,3.9l12.2,7
	l3.9-6.8l-9.7-5.6v-8.3L306.2,87z M281.4,201.5v10h10v-10H281.4z M334.7,53.7V0H0v233.3h119.5v37.2H70.1v30.4h194.7v-30.4h-49.6
	v-37.2h119.5V78.5h-7.8v101.9l-265.7,0v7.9h265.7v37.2H7.8v-37.2h33.3v-7.9l-33.3,0V7.8h319v45.8H334.7z M257,278.3v14.7H78v-14.7
	H257z M129.3,233.3h76.1v37.2h-76.1V233.3z M177.4,164.6l-2-7.6c-3.1,0.5-6.3,0.7-9.4,0.8c0,0-0.1,0-0.1,0c-11.4,0-22.6-3-32.6-8.6
	l-3.9,6.7c11.1,6.3,23.7,9.7,36.4,9.8C169.7,165.6,173.6,165.3,177.4,164.6z M183.5,32.9l4-7c-0.2-0.1-0.4-0.1-0.5-0.2
	c-19-5.7-39.6-3.5-56.8,6.2l3.2,7.1C148.6,30.3,166.7,28.1,183.5,32.9z M242,78.9c-11.5,0-20.8,9.3-20.8,20.8
	c0,11.5,9.3,20.8,20.8,20.8s20.8-9.3,20.8-20.8C262.9,88.2,253.5,78.9,242,78.9z M242,112.7c-7.2,0-13-5.8-13-13c0-7.2,5.8-13,13-13
	s13,5.8,13,13C255,106.9,249.2,112.7,242,112.7z M110.7,99.7c0-8.4-6.8-15.2-15.2-15.2s-15.2,6.8-15.2,15.2s6.8,15.2,15.2,15.2
	S110.7,108.1,110.7,99.7z M95.5,107.1c-4.1,0-7.4-3.3-7.4-7.4s3.3-7.4,7.4-7.4c4.1,0,7.4,3.3,7.4,7.4S99.6,107.1,95.5,107.1z"/>
</svg>
