<?xml version="1.0" encoding="utf-8"?>
<!-- Generator: Adobe Illustrator 21.0.0, SVG Export Plug-In . SVG Version: 6.00 Build 0)  -->
<svg version="1.1" id="Слой_1" xmlns="http://www.w3.org/2000/svg" xmlns:xlink="http://www.w3.org/1999/xlink" x="0px" y="0px"
	 viewBox="0 0 346.8 300" style="enable-background:new 0 0 346.8 300;" xml:space="preserve">
<style type="text/css">
	.st0{fill:#46B9CC;}
</style>
<path class="st0" d="M175.1,159.3h72.8v-8.3h-72.8V159.3z M175.1,60h127.2v-8.3H175.1V60z M164.8,51.8H37.6v40.7h127.2V51.8z
	 M176.4,18.3h-8.3v8.3h8.3V18.3z M175.1,126.4h127.2v-8.3H175.1V126.4z M175.1,92.5h127.2v-8.3H175.1V92.5z M327.5,225.1h-40.1v8.3
	h40.1V225.1z M327.5,248.9h-40.1v8.3h40.1V248.9z M311.8,168.3h-8.3v8.3h8.3V168.3z M327.5,186.5h-40.1v27.2h40.1V186.5z
	 M63.3,144.2h8.3V136h-8.3V144.2z M23.3,206.1h89v-40.7h-89V206.1z M147.9,126.4h16.9v-8.3h-16.9V126.4z M23.3,229.3h89V221h-89
	V229.3z M323.5,151.7V27.4c0-0.4,0-0.8-0.1-1.1l0-0.5l0-25.7h-300v116.6H0V300h240.8v-31.5l-45.7-0.1V230h73.5l0,70h78.3V151.7
	H323.5z M128.4,291.7H8.3v-15.1h120.2V291.7z M128.4,268.4H8.3V124.9l120.2,0.1V268.4z M232.5,276.7v13.4l-0.5,1.4l-1.3,0.1h-94.1
	v-15.1L232.5,276.7z M136.7,268.4V230h15.1v38.4H136.7z M160,268.4V230h26.8v38.4H160z M268.5,221.7H136.7l0-38.4h131.8V221.7z
	 M268.5,175H136.7v-58.2l-105.1-0.1V8.3h283.5v59l0.1,1.7v82.6h-46.7V175z M338.6,291.7h-61.8v-15.1h61.8V291.7z M338.6,268.4h-61.8
	V159.9h61.8V268.4z M147.9,159.3h16.8v-8.3h-16.8V159.3z M23.3,253.1h89v-8.3h-89V253.1z"/>
</svg>
