<?xml version="1.0" encoding="utf-8"?>
<!-- Generator: Adobe Illustrator 22.1.0, SVG Export Plug-In . SVG Version: 6.00 Build 0)  -->
<svg version="1.1" id="Слой_1" xmlns="http://www.w3.org/2000/svg" xmlns:xlink="http://www.w3.org/1999/xlink" x="0px" y="0px"
	 viewBox="0 0 131 100" style="enable-background:new 0 0 131 100;" xml:space="preserve">
<style type="text/css">
	.st0{fill:#46B9CC;}
</style>
<path class="st0" d="M8.9,90.2c0.1,0.5,0.5,0.8,1,0.9c0.5,0.1,1-0.1,1.3-0.4l0,0l31-33.2c0.3-0.3,0.5-0.8,0.3-1.3
	c-0.1-0.5-0.5-0.8-1-0.9c-0.1,0-0.2,0-0.3,0c-0.4,0-0.7,0.2-1,0.4l0,0l-31,33.2C8.9,89.3,8.7,89.8,8.9,90.2z M125.2,0H5.7
	C2.6,0,0,2.6,0,5.7v5.8c0,0.7,0.6,1.3,1.3,1.3h0c0.7,0,1.3-0.6,1.3-1.3V5.7C2.6,4,4,2.6,5.7,2.6h119.5c1.7,0,3.1,1.4,3.1,3.1v72.5
	c0,0.7,0.6,1.3,1.3,1.3h0c0.7,0,1.3-0.6,1.3-1.3V5.7C131,2.6,128.4,0,125.2,0z M121.8,9.3c-0.2-0.3-0.5-0.4-0.9-0.5
	c-0.3,0-0.7,0.1-1,0.3L68.9,52c-2,1.7-4.9,1.7-6.8,0L11,9.2c-0.2-0.2-0.5-0.3-0.8-0.3c-0.2,0-0.3,0-0.4,0.1C9.3,9.1,9,9.5,8.9,9.9
	c-0.1,0.5,0.1,0.9,0.5,1.2l51.1,42.9c3,2.5,7.3,2.5,10.2,0l51.1-42.9c0.3-0.2,0.4-0.5,0.5-0.9C122.2,9.9,122,9.6,121.8,9.3z
	 M128.3,94.3c0,1.7-1.4,3.1-3.1,3.1H5.7c-1.7,0-3.1-1.4-3.1-3.1V20c0-0.7-0.6-1.3-1.3-1.3h0C0.6,18.7,0,19.3,0,20v74.3
	c0,3.2,2.6,5.7,5.7,5.7h119.5c3.2,0,5.7-2.6,5.7-5.7v-7.5c0-0.7-0.6-1.3-1.3-1.3h0c-0.7,0-1.3,0.6-1.3,1.3V94.3z M89.5,55.3
	c-0.5,0.1-0.8,0.5-1,0.9c-0.1,0.5,0,1,0.3,1.3l0,0l31,33.2c0.5,0.5,1.3,0.5,1.8,0c0.5-0.5,0.6-1.3,0.1-1.8l-31-33.2
	C90.5,55.4,90,55.2,89.5,55.3z"/>
</svg>
