<?xml version="1.0" encoding="utf-8"?>
<!-- Generator: Adobe Illustrator 22.1.0, SVG Export Plug-In . SVG Version: 6.00 Build 0)  -->
<svg version="1.1" id="Слой_1" xmlns="http://www.w3.org/2000/svg" xmlns:xlink="http://www.w3.org/1999/xlink" x="0px" y="0px"
	 viewBox="0 0 134.3 100" style="enable-background:new 0 0 134.3 100;" xml:space="preserve">
<style type="text/css">
	.st0{fill:#46B9CC;}
</style>
<path class="st0" d="M98,43.1c0-4.5-3.7-8.1-8.1-8.1c-4.5,0-8.1,3.7-8.1,8.1c0,4.5,3.7,8.1,8.1,8.1C94.4,51.2,98,47.6,98,43.1z
	 M84,43.1c0-3.3,2.7-6,6-6c3.3,0,6,2.7,6,6c0,3.3-2.7,6-6,6C86.6,49,84,46.4,84,43.1z M126.2,0.1H8.1C3.6,0.1,0,3.8,0,8.2v4.6
	C0,13.5,0.5,14,1.1,14h0c0.6,0,1.1-0.5,1.1-1.1V8.2c0-3.2,2.6-5.8,5.8-5.8h118c3.2,0,5.8,2.6,5.8,5.8v60.5c0,0.6,0.5,1.1,1.1,1.1
	l0,0c0.6,0,1.1-0.5,1.1-1.1V8.2C134.3,3.8,130.6,0.1,126.2,0.1z M51.1,43.1c0-4.5-3.7-8.1-8.1-8.1s-8.1,3.7-8.1,8.1
	c0,4.5,3.7,8.1,8.1,8.1S51.1,47.6,51.1,43.1z M37,43.1c0-3.3,2.7-6,6-6c3.3,0,6,2.7,6,6c0,3.3-2.7,6-6,6C39.7,49,37,46.4,37,43.1z
	 M74.6,43.1c0-4.5-3.7-8.1-8.1-8.1c-4.5,0-8.1,3.7-8.1,8.1c0,4.5,3.7,8.1,8.1,8.1C70.9,51.2,74.6,47.6,74.6,43.1z M60.5,43.1
	c0-3.3,2.7-6,6-6c3.3,0,6,2.7,6,6c0,3.3-2.7,6-6,6C63.2,49,60.5,46.4,60.5,43.1z M132,77.9c0,3.2-2.6,5.8-5.8,5.8H32.5
	c-0.3,0-0.5,0.1-0.7,0.3L17.2,95.7l-1,0.8V84.9c0-0.6-0.5-1.1-1.1-1.1h-7c-3.2,0-5.8-2.6-5.8-5.8V19.9c0-0.6-0.5-1.1-1.1-1.1h0
	c-0.6,0-1.1,0.5-1.1,1.1v58.1c0,4.5,3.6,8.1,8.1,8.1h5.8l0,12.7c0,0.4,0.2,0.7,0.4,1c0.4,0.4,1,0.3,1.4,0l16.9-13.6l0.2-0.1h93.2
	c4.5,0,8.1-3.6,8.1-8.1v-2.1c0-0.6-0.5-1.1-1.1-1.1l0,0c-0.6,0-1.1,0.5-1.1,1.1V77.9z"/>
</svg>
