<?xml version="1.0" encoding="utf-8"?>
<!-- Generator: Adobe Illustrator 22.1.0, SVG Export Plug-In . SVG Version: 6.00 Build 0)  -->
<svg version="1.1" id="Слой_1" xmlns="http://www.w3.org/2000/svg" xmlns:xlink="http://www.w3.org/1999/xlink" x="0px" y="0px"
	 viewBox="0 0 49 100" style="enable-background:new 0 0 49 100;" xml:space="preserve">
<style type="text/css">
	.st0{fill:#46B9CC;}
</style>
<path class="st0" d="M27.3,4.4h-5.6c-0.6,0-1.2,0.5-1.2,1.2s0.5,1.2,1.2,1.2h5.6c0.6,0,1.2-0.5,1.2-1.2S27.9,4.4,27.3,4.4z
	 M17.1,4.4c-0.6,0-1.2,0.5-1.2,1.2s0.5,1.2,1.2,1.2c0.6,0,1.2-0.5,1.2-1.2S17.7,4.4,17.1,4.4z M47.8,81.7c-0.6,0-1.2,0.5-1.2,1.2
	v3.5H9.5c-0.6,0-1.2,0.5-1.2,1.2s0.5,1.2,1.2,1.2h37.1v5.5c0,1.9-1.6,3.5-3.5,3.5H5.8c-1.9,0-3.5-1.6-3.5-3.5v-5.5h2.2
	c0.6,0,1.2-0.5,1.2-1.2s-0.5-1.2-1.2-1.2H2.3V19.9c0-0.6-0.5-1.2-1.2-1.2S0,19.3,0,19.9v74.3c0,3.2,2.6,5.8,5.8,5.8h37.3
	c3.2,0,5.8-2.6,5.8-5.8V82.8C49,82.2,48.5,81.7,47.8,81.7z M43.1,0H5.8C2.6,0,0,2.6,0,5.8v9C0,15.5,0.5,16,1.2,16s1.2-0.5,1.2-1.2
	v-3.4h44.3v66.4c0,0.6,0.5,1.2,1.2,1.2s1.2-0.5,1.2-1.2v-72C49,2.6,46.4,0,43.1,0z M46.6,9.1H2.3V5.8c0-1.9,1.6-3.5,3.5-3.5h37.3
	c1.9,0,3.5,1.6,3.5,3.5V9.1z M27.3,93.2c0-1.6-1.3-2.8-2.8-2.8c-1.6,0-2.8,1.3-2.8,2.8s1.3,2.8,2.8,2.8C26.1,96,27.3,94.8,27.3,93.2
	z M23.4,93.2c0-0.6,0.5-1.1,1.1-1.1c0.6,0,1.1,0.5,1.1,1.1s-0.5,1.1-1.1,1.1C23.9,94.3,23.4,93.8,23.4,93.2z"/>
</svg>
