<?xml version="1.0" encoding="utf-8"?>
<!-- Generator: Adobe Illustrator 21.0.0, SVG Export Plug-In . SVG Version: 6.00 Build 0)  -->
<svg version="1.1" id="Слой_1" xmlns="http://www.w3.org/2000/svg" xmlns:xlink="http://www.w3.org/1999/xlink" x="0px" y="0px"
	 viewBox="0 0 300 300" style="enable-background:new 0 0 300 300;" xml:space="preserve">
<style type="text/css">
	.st0{fill:#46B9CC;}
</style>
<path class="st0" d="M144.6,86.8v72.1h44.1v-8.4H153V86.8H144.6z M152.9,0v8.9c37.6,0.8,72.7,16.1,98.9,43.5
	c26.6,27.7,40.5,64.1,39.2,102.4c-2.4,73.6-62,133.4-135.5,136.2c-38.7,1.5-75.4-12.5-103.3-39.3c-28-26.9-43.3-63-43.3-101.7
	c0-52.6,28.8-100.4,75.3-124.9L80.5,17C28.5,44.3-2.3,97.6,0.1,156.3C3.5,236.9,69.3,300,150,300h0.1c82.7,0,149.9-67.3,149.9-150
	C300,68.5,234.2,1.5,152.9,0z M53.6,146.2c-1,26.5,8.5,51.6,26.9,70.7c18.4,19.1,43.1,29.6,69.5,29.6c25.5,0,49.5-9.8,67.6-27.7
	l-6-6.5c-16.4,16.2-38.2,25.2-61.3,25.3H150c-47.8,0-87.1-38.8-87.6-86.6c-0.3-23.6,8.7-45.8,25.3-62.6
	c16.6-16.8,38.7-26.1,62.3-26.1c37.6,0,71.6,24.7,83.3,60.4l8.6-2.2c-6-18.7-17.8-35.4-33.5-47.4c-16.7-12.7-36.6-19.5-57.7-19.7
	c-0.2,0-0.5,0-0.7,0C98.8,53.5,55.6,94.9,53.6,146.2z M215.7,139.6l22.4,22.4c1.7,1.7,4.6,1.7,6.3,0l22.5-22.4l-6.8-5.8l-18.8,18.8
	l-18.8-18.8L215.7,139.6z"/>
</svg>
