<?xml version="1.0" encoding="utf-8"?>
<!-- Generator: Adobe Illustrator 21.0.0, SVG Export Plug-In . SVG Version: 6.00 Build 0)  -->
<svg version="1.1" id="Слой_1" xmlns="http://www.w3.org/2000/svg" xmlns:xlink="http://www.w3.org/1999/xlink" x="0px" y="0px"
	 viewBox="0 0 229.6 300" style="enable-background:new 0 0 229.6 300;" xml:space="preserve">
<style type="text/css">
	.st0{fill:#46B9CC;}
</style>
<path class="st0" d="M25.1,224.6h23.4v-8.4H25.1V224.6z M155.9,144.1h23.4v-8.4h-23.4V144.1z M165.9,199.4h13.4v-8.4h-13.4V199.4z
	 M130.7,254.7h43.6v-8.4h-43.6V254.7z M159.2,180.2c0-30-24.4-54.5-54.5-54.5c-30,0-54.5,24.4-54.5,54.5c0,30,24.4,54.5,54.5,54.5
	C134.7,234.6,159.2,210.2,159.2,180.2z M150.5,185.3c-0.7,6-2.5,11.7-5.3,16.9l-0.5,0.8L118,184.3h32.6L150.5,185.3z M108.9,134.3
	l0.9,0.1c21.5,2.4,38.2,19.2,40.7,40.7l0.1,0.9h-41.7V134.3z M139.3,210.6c-8.7,10-21.3,15.7-34.6,15.7h0
	c-24.4-0.1-44.5-19.2-45.9-43.5c-1.4-24.3,16.5-45.6,40.8-48.4l0.9-0.1v48.1l39.4,27.5L139.3,210.6z M50.3,119h8.4v-5.7l0.6-0.2
	c6.6-2.3,10.5-9,9.3-15.8c-1.2-6.8-7.1-11.8-14-11.8h0c-3.2,0-5.9-2.6-5.9-5.9c0-3.2,2.6-5.9,5.9-5.9c3,0,5.4,2.2,5.8,5h8.4
	c-0.4-5.6-4.1-10.6-9.5-12.5L58.6,66v-5.7h-8.4V66l-0.6,0.2c-6.6,2.3-10.5,9-9.3,15.8c1.2,6.8,7.1,11.8,14,11.8h0
	c3.2,0,5.9,2.6,5.9,5.9s-2.6,5.9-5.9,5.9c-3,0-5.4-2.2-5.8-5h-8.4c0.4,5.6,4.1,10.6,9.5,12.5l0.6,0.2V119z M209.5,37.6L171.8,0H0
	v284.9h209.5V37.6z M174.3,14.3l20.9,20.9h-20.9V14.3z M201.1,276.6H8.4V8.4h157.6v35.2h35.2V276.6z M201.1,10.1v8.4h20.1v273.2
	H15.1v8.4h214.5V10.1H201.1z M90.5,73.7h88.8v-8.4H90.5V73.7z M90.5,93.8h88.8v-8.4H90.5V93.8z M90.5,114h88.8v-8.4H90.5V114z"/>
</svg>
