<?xml version="1.0" encoding="utf-8"?>
<!-- Generator: Adobe Illustrator 21.0.0, SVG Export Plug-In . SVG Version: 6.00 Build 0)  -->
<svg version="1.1" id="Слой_1" xmlns="http://www.w3.org/2000/svg" xmlns:xlink="http://www.w3.org/1999/xlink" x="0px" y="0px"
	 viewBox="0 0 254 274.3" style="enable-background:new 0 0 254 274.3;" xml:space="preserve">
<style type="text/css">
	.st0{fill:#46B9CC;}
</style>
<path class="st0" d="M72.3,62.3c-8.9,0-16.2,7.2-16.2,16.2c0,8.9,7.2,16.2,16.2,16.2c8.1,0,14.7-6,15.9-13.7
	c0.1-0.8,0.2-1.5,0.2-2.3c0-0.1,0-0.1,0-0.2c0-0.1,0-0.2,0-0.3c0-0.6-0.1-1.2-0.2-1.8C87.2,68.5,80.5,62.3,72.3,62.3z M45.1,58.3
	c1.3,0.9,2.8,1.3,4.3,1.3c0.4,0,0.8,0,1.3-0.1c1.9-0.4,3.6-1.4,4.7-3.1c1.6-2.4,1.6-5.3,0.4-7.6c0,0,0-0.1-0.1-0.1
	c-0.3-0.5-0.6-1-1-1.4c-0.2-0.2-0.4-0.4-0.7-0.6c-0.2-0.2-0.4-0.4-0.6-0.5c-0.1-0.1-0.2-0.1-0.3-0.2c-0.2-0.1-0.3-0.2-0.5-0.3
	c-1.3-0.6-2.7-0.9-4.1-0.7c-0.1,0-0.2,0-0.4,0c-2,0.3-3.8,1.4-5,3.2C40.8,51.4,41.7,56,45.1,58.3z M76.9,49c5,3.4,11.9,2.1,15.3-2.9
	c3.4-5,2.1-11.9-2.9-15.3c-5-3.4-11.9-2.1-15.3,2.9C70.6,38.7,71.9,45.6,76.9,49z M57.5,173.1c3.4-5,2.1-11.9-2.9-15.3
	c-5-3.4-11.9-2.1-15.3,2.9c-3.4,5-2.1,11.9,2.9,15.3C47.2,179.4,54.1,178.1,57.5,173.1z M114.7,46.9c5.9,4,13.9,2.5,17.9-3.4
	c4-5.9,2.5-13.9-3.4-17.9c-5.9-4-13.9-2.5-17.9,3.4C107.3,34.9,108.8,42.9,114.7,46.9z M198.7,46.9c2.7,1.8,6.3,1.1,8.1-1.6
	c1.8-2.7,1.1-6.3-1.6-8.1c-2.7-1.8-6.3-1.1-8.1,1.6C195.3,41.4,196,45.1,198.7,46.9z M146.4,7.7c1.5-2.3,0.9-5.3-1.3-6.9
	c-2.3-1.5-5.3-0.9-6.9,1.3c-1.5,2.3-0.9,5.3,1.3,6.9C141.8,10.6,144.9,10,146.4,7.7z M106.2,14.9c1.1-1.6,0.7-3.8-0.9-4.8
	c-1.6-1.1-3.8-0.7-4.8,0.9c-1.1,1.6-0.7,3.8,0.9,4.8C102.9,16.9,105.1,16.5,106.2,14.9z M64.3,11.9c1.2-1.8,0.8-4.3-1.1-5.5
	c-1.8-1.2-4.3-0.8-5.5,1.1c-1.2,1.8-0.8,4.3,1.1,5.5C60.6,14.2,63.1,13.7,64.3,11.9z M5.6,152.5c-1.5,2.3-0.9,5.4,1.3,6.9
	c2.3,1.5,5.4,0.9,6.9-1.3s0.9-5.4-1.3-6.9C10.3,149.7,7.2,150.3,5.6,152.5z M34.7,190.7c-2.6-1.8-6.2-1.1-8,1.5
	c-1.8,2.6-1.1,6.2,1.5,8c2.6,1.8,6.2,1.1,8-1.5C38,196,37.3,192.5,34.7,190.7z M56.8,224.1c-2.6-1.8-6.2-1.1-8,1.5
	c-1.8,2.6-1.1,6.2,1.5,8c2.6,1.8,6.2,1.1,8-1.5C60.2,229.4,59.5,225.9,56.8,224.1z M252,239.9c-1.6-1.6-3-3.2-4.4-4.8
	c-8.1-9-16.3-17.8-28.3-21.8c-6.2-2.7-12.4-1.6-18.6,0c-0.2,0-0.4,0.1-0.6,0.1c-6.3,3-13.3,4.7-20.7,4.7c-0.1,0-0.2,0-0.3,0
	c-0.4,0-0.9,0-1.3-0.1c-4.1-0.1-8.1-0.8-11.9-1.9c0,0,0,0,0,0c0,0,0,0,0,0c-16-4.6-28.6-17.3-33.1-33.3c-0.3-0.7-0.4-1.4-0.6-2.2
	c-0.8-3.6-1.3-7.3-1.3-11.1c0-0.7,0.1-1.5,0.1-2.2c-0.1-0.2-0.1-0.4-0.2-0.6c0.1-0.7,0.2-1.4,0.4-2c0.4-4,1.3-7.9,2.7-11.6
	c0.1-0.2,0.2-0.5,0.3-0.7c0.9-2.5,2.1-4.9,3.4-7.1c0-0.1,0-0.2,0-0.2c0.4-0.8,1-1.5,1.5-2.2c0.2-0.3,0.4-0.6,0.6-0.8
	c0.7-1.1,1.5-2.1,2.3-3.1c0.2-0.3,0.5-0.6,0.8-0.9c0.6-0.7,1.2-1.5,1.9-2.2c0.1,0,0.1,0,0.1,0c2.4-2.5,5.1-4.7,8-6.7
	c0.3-0.2,0.5-0.4,0.8-0.6c0.1,0,0.1,0,0.2,0c5.3-3.4,11.3-5.7,17.8-6.8c0.9-0.2,1.8-0.3,2.7-0.4c0.2,0,0.5-0.1,0.7-0.1
	c3-0.3,6-0.3,8.9,0c0.5,0,1.1,0.1,1.6,0.2c0.3,0,0.6,0.1,0.8,0.1c3.9,0.5,7.6,1.5,11.2,2.9c6.8,2,13.7,3.2,20.9,1.3
	c2.7-0.7,7.4-2.8,7.9-3.1c10.4-6.6,18.7-15.3,26.3-24.9c1.4-1.8,0.9-2.8-0.8-4.3c-5.8-5.6-12.6-9.9-19.2-14.5
	c-3.5-2.1-7.1-3.9-10.9-5.5c-0.1,0-0.3-0.1-0.4-0.1c-0.1-0.1-0.3-0.2-0.4-0.2c-3.2-1.4-6.5-2.6-9.9-3.7c-2-0.6-4.1-1.1-6.1-1.7
	c-8.1-2-16.5-3.1-25.2-3.1c-0.5,0-1,0-1.6,0c-0.6,0-1.1,0-1.6,0c-0.6,0-1.3,0-1.9,0c-1.8,0-3.6,0.2-4.7-1.8c-1.2-2.2,0.1-3.7,1-5.3
	c0.6-1,1.4-1.7,2.2-2.4c1-0.6,1.9-1.3,2.7-2c0,0,0,0,0,0c0,0,0,0,0,0c0.6-0.5,1.2-1.1,1.8-1.7c0.4-0.4,0.7-0.9,1.1-1.3
	c0.3-0.4,0.7-0.9,1-1.3c0.6-0.9,1.1-1.9,1.6-2.9c0.2-0.4,0.3-0.9,0.5-1.3c0.2-0.7,0.5-1.4,0.7-2.1c0.1-0.5,0.2-1,0.3-1.5
	c0.1-0.8,0.2-1.6,0.2-2.3c0-0.3,0.1-0.7,0.1-1c0-0.1,0-0.2,0-0.4c0-0.7-0.1-1.4-0.2-2.1c-1.2-10.2-9.8-18.2-20.4-18.2
	c-11.4,0-20.6,9.2-20.6,20.6c0,9.7,6.7,17.8,15.7,20c2.3,1,4.1,2.7,4.1,5.4c0.1,2.9-2.2,4-4.6,4.7c-3.6,1.6-7.1,2.5-10.6,0
	c-4.7-7.4-12.9-12.3-22.2-12.3c-14.5,0-26.3,11.8-26.3,26.3c0,5.5,1.7,10.5,4.5,14.7c0,0.1,0,0.1,0,0.2c0.3,0.6,0.5,1.3,0.5,2.1
	c0,2.8-2.3,5.1-5.1,5.1c-0.4,0-0.7-0.1-1-0.2c-0.1,0-0.2,0.1-0.3,0.1c-2.5-0.7-5.1-1.1-7.9-1.1c-8.6,0-16.3,3.6-21.9,9.3
	c-2.1,1.7-4.5,2.9-7.4,2c-7-2.2-12.1-6.3-13.4-14.1c-0.4-0.7-0.7-1.4-0.9-2.1c-0.3-0.8-0.6-1.5-0.9-2.2c0-0.1-0.1-0.2-0.1-0.2
	c-3.7-7.7-11.6-13-20.8-13C10.4,82,0,92.4,0,105.1c0,12.8,10.4,23.1,23.1,23.1c2.5,0,4.9-0.4,7.2-1.2c2.1-0.6,4.2-1.5,6.1-2.8
	c9.3-5.8,20.2-0.7,21.6,10.1c0.1,0.5,0.2,1,0.3,1.5c0.9,8.8,5.6,16.4,12.4,21.4c0.2,0.1,0.4,0.2,0.6,0.3c0.3,0.2,0.5,0.5,0.8,0.7
	c0.1,0.1,0.2,0.1,0.2,0.2c0,0,0,0.1,0.1,0.1c4.1,3.7,5,9.8,1.8,14.5c-0.5,0.8-1.2,1.5-1.9,2.1c-0.1,0.1-0.1,0.2-0.2,0.3
	c-0.2,0.1-0.4,0.3-0.6,0.4c-0.4,0.3-0.8,0.5-1.1,0.7c0,0,0,0,0,0c-0.1,0-0.1,0.1-0.1,0.1c-0.4,0.2-0.8,0.4-1.2,0.6
	c-6.3,3.1-10.6,9.6-10.6,17.1c0,10.6,8.6,19.2,19.2,19.2c0.1,0,0.3,0,0.4,0c0,0,0.1,0,0.1,0c3.5,0.3,6.8,0.9,8.5,4.5
	c0.7,1.4,1.4,2.8,2.2,4.1c12.1,20.8,31.1,37.1,54,45.7c1.7,0.6,3.5,1.1,5.3,1.5c2.8,1.4,6.1,1.1,8.9,2.7c0.6,0.1,1.3,0.2,1.9,0.3
	c0.3,0.1,0.5,0.2,0.8,0.3c2.2,0.4,4.3,0.8,6.5,1.1c0.9,0.1,1.7,0.1,2.6,0.2c1.6,0.2,3.2,0.3,4.8,0.4c2,0.1,3.9,0.2,5.9,0.2
	c4.6,0,9.1-0.3,13.6-0.9c2.2-0.4,4.5-0.8,6.7-1.3c0.9,0,1.7-0.2,2.5-0.3c0.7-0.2,1.5-0.3,2.2-0.5c2.6-0.7,5.2-1.8,7.8-2.4
	c1.5-1.1,3.4-1.1,5-1.8c4.1-1.9,8.2-3.6,12.2-5.6c7.8-3.9,14.4-9.5,21.1-14.9c1-1,2.1-1.9,3.1-2.9C254.5,242.7,253.3,241,252,239.9z
	"/>
</svg>
