<?xml version="1.0" encoding="utf-8"?>
<!-- Generator: Adobe Illustrator 21.0.0, SVG Export Plug-In . SVG Version: 6.00 Build 0)  -->
<svg version="1.1" id="Слой_1" xmlns="http://www.w3.org/2000/svg" xmlns:xlink="http://www.w3.org/1999/xlink" x="0px" y="0px"
	 viewBox="0 0 761.2 274.3" style="enable-background:new 0 0 761.2 274.3;" xml:space="preserve">
<style type="text/css">
	.st0{fill:#46B9CC;}
	.st1{fill:#FFFFFF;}
</style>
<g>
	<path class="st0" d="M246.6,253h1.8l8.9,21.3H255l-2.8-6.7h-9.6l-2.7,6.7h-2.3L246.6,253z M251.7,266l-4.3-10.5l-4.4,10.5H251.7z"
		/>
	<path class="st0" d="M308.3,271.2c-2,2.2-4.3,3.3-6.8,3.3c-1.4,0-2.8-0.3-4-0.9c-1.2-0.6-2.3-1.4-3.1-2.5c-0.9-1-1.6-2.2-2.1-3.5
		s-0.8-2.6-0.8-4c0-1.4,0.2-2.8,0.7-4.1c0.5-1.3,1.2-2.4,2.1-3.4c0.9-1,1.9-1.8,3.1-2.4c1.2-0.6,2.5-0.9,3.9-0.9c1,0,2,0.1,2.9,0.3
		c0.9,0.2,1.6,0.6,2.3,1c0.7,0.4,1.2,0.9,1.7,1.5c0.5,0.6,0.9,1.2,1.2,1.9l-1.6,1.1c-0.7-1.3-1.6-2.3-2.7-2.9s-2.4-0.9-3.8-0.9
		c-1.2,0-2.2,0.3-3.2,0.8c-1,0.5-1.8,1.2-2.4,2c-0.7,0.8-1.2,1.8-1.5,2.9s-0.5,2.2-0.5,3.3c0,1.2,0.2,2.3,0.6,3.4
		c0.4,1.1,1,2,1.7,2.8c0.7,0.8,1.6,1.5,2.5,1.9c1,0.5,2,0.7,3.2,0.7c1.2,0,2.4-0.3,3.5-0.9c1.1-0.6,2.2-1.5,3.2-2.7v-3.5h-4.7v-1.6
		h6.5v10.5h-1.8V271.2z"/>
	<path class="st0" d="M361.4,272.5v1.9h-14.3V253h14v1.9h-11.9v7.7h10.4v1.8h-10.4v8.1H361.4z"/>
	<path class="st0" d="M400.2,256.9v17.4h-2.1V253h1.6l14.1,17.7v-17.7h2.1v21.3h-1.8L400.2,256.9z"/>
	<path class="st0" d="M452.5,263.5c0-1.3,0.2-2.6,0.7-3.8c0.5-1.3,1.1-2.4,2-3.4c0.9-1,1.9-1.8,3.2-2.4c1.3-0.6,2.7-0.9,4.3-0.9
		c1.9,0,3.5,0.4,4.9,1.3c1.3,0.9,2.3,2,3,3.4l-1.7,1c-0.3-0.7-0.8-1.3-1.2-1.8c-0.5-0.5-1-0.9-1.6-1.2c-0.6-0.3-1.1-0.5-1.7-0.6
		c-0.6-0.1-1.2-0.2-1.8-0.2c-1.3,0-2.4,0.3-3.4,0.8c-1,0.5-1.8,1.2-2.5,2s-1.2,1.8-1.5,2.8c-0.3,1-0.5,2.1-0.5,3.2
		c0,1.2,0.2,2.3,0.6,3.4s1,2,1.7,2.9c0.7,0.8,1.5,1.5,2.5,2c1,0.5,2,0.7,3.2,0.7c0.6,0,1.2-0.1,1.8-0.2c0.6-0.2,1.2-0.4,1.8-0.7
		s1.1-0.7,1.6-1.2c0.5-0.5,0.9-1.1,1.3-1.8l1.7,0.9c-0.3,0.8-0.8,1.5-1.4,2.1c-0.6,0.6-1.3,1.1-2.1,1.5s-1.6,0.7-2.4,1
		c-0.8,0.2-1.7,0.3-2.5,0.3c-1.5,0-2.8-0.3-4-1c-1.2-0.6-2.3-1.5-3.2-2.5c-0.9-1-1.6-2.2-2.1-3.5
		C452.8,266.2,452.5,264.9,452.5,263.5z"/>
	<path class="st0" d="M507.3,253l7,11.5l7-11.5h2.3l-8.3,13.4v7.9h-2.1v-8L505,253H507.3z"/>
</g>
<g>
	<path class="st1" d="M13.1,148.5c-4.2-2.5-7.4-6-9.7-10.6c-2.3-4.6-3.4-9.8-3.4-15.8s1.2-11.3,3.5-16c2.4-4.6,5.7-8.2,9.9-10.8
		c4.2-2.6,9.1-3.8,14.6-3.8c3,0,6.1,0.4,9.1,1.3s5.6,2.1,7.9,3.7c1.4,1,2.5,1.9,3.1,2.8c0.6,0.9,0.9,1.9,0.9,3.1
		c0,1.1-0.3,2-0.9,2.8c-0.6,0.7-1.4,1.1-2.3,1.1c-0.6,0-1.2-0.2-1.8-0.5c-0.6-0.3-1.2-0.6-1.6-1c-0.4-0.3-0.7-0.5-0.9-0.6
		c-2.1-1.4-4.1-2.4-5.9-3.2c-1.9-0.8-4.2-1.2-6.9-1.2c-5.8,0-10.4,2-13.6,5.9c-3.2,4-4.9,9.5-4.9,16.5c0,7,1.6,12.5,4.9,16.3
		c3.2,3.8,7.8,5.8,13.6,5.8c2.7,0,5.1-0.4,7-1.2c2-0.8,3.9-1.9,5.9-3.2c0.9-0.6,1.7-1,2.5-1.4c0.8-0.4,1.5-0.6,2-0.6
		c0.9,0,1.6,0.4,2.2,1.1c0.6,0.7,0.9,1.6,0.9,2.8c0,1-0.3,2-0.8,2.8c-0.6,0.8-1.6,1.8-3.1,2.8c-2.2,1.5-4.9,2.7-8.1,3.7
		c-3.2,0.9-6.3,1.4-9.5,1.4C22.2,152.2,17.3,150.9,13.1,148.5z"/>
	<path class="st1" d="M70.6,148.5c-4.2-2.5-7.4-6-9.7-10.6c-2.3-4.6-3.4-9.9-3.4-16c0-6.1,1.1-11.4,3.4-16c2.3-4.6,5.5-8.1,9.7-10.6
		c4.2-2.5,9.1-3.7,14.6-3.7c5.5,0,10.4,1.2,14.6,3.7c4.2,2.5,7.5,6,9.8,10.6c2.3,4.6,3.4,9.9,3.4,16c0,6.1-1.1,11.4-3.4,16
		c-2.3,4.6-5.5,8.1-9.8,10.6c-4.2,2.5-9.1,3.7-14.6,3.7C79.7,152.2,74.8,150.9,70.6,148.5z M98.5,138.4c3.1-3.8,4.6-9.3,4.6-16.6
		c0-7.1-1.6-12.6-4.7-16.5c-3.1-3.9-7.5-5.8-13.2-5.8c-5.7,0-10.1,1.9-13.2,5.8c-3.1,3.9-4.7,9.4-4.7,16.5c0,7.2,1.5,12.7,4.6,16.6
		c3.1,3.8,7.5,5.8,13.3,5.8C91,144.1,95.4,142.2,98.5,138.4z"/>
	<path class="st1" d="M178.1,67.5c0.9,0.9,1.3,2,1.3,3.4v76.3c0,1.4-0.4,2.6-1.3,3.5c-0.9,0.9-2.1,1.3-3.6,1.3
		c-1.5,0-2.7-0.4-3.5-1.3c-0.8-0.9-1.3-2-1.3-3.5v-6.5c-1.8,3.7-4.3,6.5-7.7,8.5c-3.4,2-7.4,3-11.9,3c-5.1,0-9.6-1.3-13.6-3.8
		c-3.9-2.6-7-6.1-9.1-10.7c-2.2-4.6-3.2-9.9-3.2-16c0-6,1.1-11.3,3.2-15.8c2.2-4.6,5.2-8.1,9.1-10.6c3.9-2.5,8.4-3.7,13.6-3.7
		c4.6,0,8.5,1,11.9,3c3.4,2,6,4.8,7.7,8.5V70.8c0-1.4,0.4-2.6,1.3-3.4s2-1.3,3.5-1.3C176,66.1,177.2,66.6,178.1,67.5z M165.1,138.3
		c3.1-3.9,4.6-9.4,4.6-16.5c0-7.1-1.5-12.6-4.6-16.4c-3.1-3.8-7.5-5.8-13.1-5.8c-5.7,0-10.1,1.9-13.3,5.8c-3.2,3.8-4.7,9.2-4.7,16.2
		c0,7.1,1.6,12.7,4.7,16.6c3.2,4,7.6,5.9,13.3,5.9C157.6,144.1,162,142.2,165.1,138.3z"/>
	<path class="st1" d="M244.9,138.9c0.6,0.7,1,1.6,1,2.8c0,2-1.4,3.8-4.2,5.5c-2.9,1.7-5.9,2.9-9.1,3.8c-3.2,0.8-6.3,1.3-9.4,1.3
		c-9,0-16.2-2.7-21.4-8c-5.2-5.4-7.9-12.8-7.9-22.2c0-6,1.2-11.3,3.5-15.9c2.3-4.6,5.6-8.2,9.8-10.7c4.2-2.6,9-3.8,14.3-3.8
		c7.6,0,13.6,2.5,18.1,7.4c4.5,5,6.7,11.7,6.7,20.2c0,1.6-0.3,2.8-1,3.5c-0.6,0.7-1.7,1.1-3.1,1.1h-38.6
		c0.7,13.8,7.2,20.6,19.6,20.6c3.1,0,5.8-0.4,8-1.3c2.2-0.8,4.6-2,7.2-3.4c2.1-1.2,3.5-1.8,4.2-1.8
		C243.5,137.8,244.3,138.1,244.9,138.9z M209.3,103.8c-3.1,3.2-4.9,7.7-5.5,13.6h34c-0.2-5.9-1.6-10.5-4.4-13.6
		c-2.8-3.2-6.7-4.7-11.8-4.7C216.5,99,212.4,100.6,209.3,103.8z"/>
</g>
<g>
	<path class="st1" d="M537.4,93.8c0,1.3-0.4,2.3-1.1,3.1c-0.7,0.8-2,1.2-3.7,1.4l-3.6,0.4c-5.4,0.5-9.3,2.4-11.9,5.7
		c-2.6,3.3-3.9,7.2-3.9,11.7v29.2c0,1.6-0.4,2.8-1.3,3.6c-0.9,0.8-2,1.2-3.5,1.2s-2.6-0.4-3.5-1.3c-0.9-0.8-1.4-2-1.4-3.5V94.5
		c0-1.5,0.5-2.7,1.4-3.5c1-0.8,2.1-1.3,3.5-1.3c1.3,0,2.4,0.4,3.2,1.3c0.9,0.8,1.3,2,1.3,3.4v6.7c1.7-3.5,4.1-6.2,7.1-8
		c3.1-1.8,6.6-2.9,10.6-3.2l1.7-0.1C535.8,89.5,537.4,90.8,537.4,93.8z"/>
	<path class="st1" d="M592.2,136.9c0.6,0.7,1,1.6,1,2.8c0,2-1.4,3.8-4.2,5.5c-2.9,1.7-5.9,2.9-9.1,3.8c-3.2,0.8-6.3,1.3-9.4,1.3
		c-9,0-16.2-2.7-21.4-8c-5.2-5.4-7.9-12.8-7.9-22.2c0-6,1.2-11.3,3.5-15.9c2.3-4.6,5.6-8.2,9.8-10.7c4.2-2.6,9-3.8,14.3-3.8
		c7.6,0,13.6,2.5,18.1,7.4c4.5,5,6.7,11.7,6.7,20.2c0,1.6-0.3,2.8-1,3.5c-0.6,0.7-1.7,1.1-3.1,1.1h-38.6
		c0.7,13.8,7.2,20.6,19.6,20.6c3.1,0,5.8-0.4,8-1.3c2.2-0.8,4.6-2,7.2-3.4c2.1-1.2,3.5-1.8,4.2-1.8
		C590.8,135.8,591.5,136.1,592.2,136.9z M556.6,101.8c-3.1,3.2-4.9,7.7-5.5,13.6h34c-0.2-5.9-1.6-10.5-4.4-13.6
		c-2.8-3.2-6.7-4.7-11.8-4.7C563.8,97,559.7,98.6,556.6,101.8z"/>
	<path class="st1" d="M653.7,112.5v32.6c0,1.4-0.4,2.6-1.3,3.5c-0.8,0.9-2,1.3-3.4,1.3c-1.4,0-2.6-0.4-3.5-1.3
		c-0.9-0.9-1.3-2-1.3-3.5v-5.8c-1.5,3.4-3.8,6.1-7,8c-3.1,1.9-6.7,2.8-10.8,2.8c-3.8,0-7.2-0.8-10.4-2.3c-3.2-1.5-5.7-3.6-7.5-6.4
		c-1.8-2.7-2.8-5.7-2.8-9c0-4.4,1.1-7.8,3.4-10.3c2.2-2.4,5.9-4.2,11-5.3c5.1-1.1,12.2-1.6,21.4-1.6h2.6v-4c0-4.8-1-8.3-2.9-10.6
		c-2-2.2-5.1-3.4-9.5-3.4c-5.4,0-11,1.5-16.6,4.4c-2.2,1.4-3.7,2-4.6,2c-1,0-1.8-0.4-2.4-1.1c-0.6-0.7-1-1.6-1-2.8
		c0-1.1,0.3-2.1,1-2.9c0.7-0.8,1.8-1.7,3.3-2.6c2.8-1.6,6-2.9,9.5-3.8c3.6-0.9,7.1-1.4,10.6-1.4C646.4,89.5,653.7,97.1,653.7,112.5z
		 M639.6,137.6c3.1-3.2,4.6-7.4,4.6-12.5v-3.5h-2.2c-7,0-12.4,0.3-16.1,0.9c-3.7,0.6-6.3,1.6-7.9,3c-1.6,1.4-2.3,3.5-2.3,6.2
		c0,3.1,1.1,5.7,3.4,7.7s5.1,3.1,8.6,3.1C632.6,142.5,636.5,140.9,639.6,137.6z"/>
	<path class="st1" d="M702.7,146.1c0,1.4-0.5,2.4-1.5,3.1c-1,0.7-2.5,0.9-4.5,0.8l-3.2-0.2c-6.4-0.5-11.1-2.4-14.2-5.8
		c-3-3.4-4.6-8.4-4.6-15.2V98.6h-8c-1.4,0-2.4-0.3-3.2-1c-0.8-0.7-1.1-1.6-1.1-2.7c0-1.2,0.4-2.2,1.1-2.9c0.8-0.7,1.8-1.1,3.2-1.1h8
		V77.3c0-1.5,0.4-2.7,1.3-3.5c0.9-0.8,2.1-1.3,3.6-1.3c1.4,0,2.6,0.4,3.5,1.3c0.9,0.8,1.3,2,1.3,3.5v13.6h13.3
		c1.3,0,2.3,0.4,3.1,1.1c0.8,0.7,1.1,1.7,1.1,2.9c0,1.1-0.4,2-1.1,2.7c-0.8,0.7-1.8,1-3.1,1h-13.3v30.6c0,4.4,0.9,7.6,2.7,9.5
		c1.8,2,4.5,3.1,8.1,3.3l3.2,0.2C701.3,142.5,702.7,143.8,702.7,146.1z"/>
	<path class="st1" d="M759.8,136.9c0.6,0.7,1,1.6,1,2.8c0,2-1.4,3.8-4.2,5.5c-2.9,1.7-5.9,2.9-9.1,3.8c-3.2,0.8-6.3,1.3-9.4,1.3
		c-9,0-16.2-2.7-21.4-8c-5.2-5.4-7.9-12.8-7.9-22.2c0-6,1.2-11.3,3.5-15.9c2.3-4.6,5.6-8.2,9.8-10.7c4.2-2.6,9-3.8,14.3-3.8
		c7.6,0,13.6,2.5,18.1,7.4c4.5,5,6.7,11.7,6.7,20.2c0,1.6-0.3,2.8-1,3.5c-0.6,0.7-1.7,1.1-3.1,1.1h-38.6
		c0.7,13.8,7.2,20.6,19.6,20.6c3.1,0,5.8-0.4,8-1.3c2.2-0.8,4.6-2,7.2-3.4c2.1-1.2,3.5-1.8,4.2-1.8
		C758.4,135.8,759.2,136.1,759.8,136.9z M724.2,101.8c-3.1,3.2-4.9,7.7-5.5,13.6h34c-0.2-5.9-1.6-10.5-4.4-13.6
		c-2.8-3.2-6.7-4.7-11.8-4.7C731.4,97,727.3,98.6,724.2,101.8z"/>
</g>
<path class="st0" d="M327.9,47.2c-6.8,0-12.3,5.5-12.3,12.3c0,6.8,5.5,12.3,12.3,12.3c6.1,0,11.2-4.5,12.1-10.4
	c0.1-0.6,0.2-1.1,0.2-1.7c0-0.1,0-0.1,0-0.2c0-0.1,0-0.1,0-0.2c0-0.5-0.1-0.9-0.1-1.4C339.2,51.9,334.1,47.2,327.9,47.2z
	 M307.2,44.2c1,0.7,2.1,1,3.3,1c0.3,0,0.6,0,1-0.1c1.4-0.3,2.7-1.1,3.6-2.4c1.2-1.8,1.2-4,0.3-5.8c0,0,0-0.1,0-0.1
	c-0.2-0.4-0.4-0.7-0.7-1c-0.2-0.2-0.3-0.3-0.5-0.5c-0.2-0.1-0.3-0.3-0.5-0.4c-0.1-0.1-0.2-0.1-0.2-0.1c-0.1-0.1-0.3-0.2-0.4-0.2
	c-1-0.5-2-0.7-3.1-0.6c-0.1,0-0.2,0-0.3,0c-1.5,0.2-2.9,1-3.8,2.4C304,38.9,304.7,42.4,307.2,44.2z M331.4,37.1
	c3.8,2.6,9,1.6,11.6-2.2c2.6-3.8,1.6-9-2.2-11.6c-3.8-2.6-9-1.6-11.6,2.2C326.6,29.3,327.6,34.5,331.4,37.1z M316.7,131.1
	c2.6-3.8,1.6-9-2.2-11.6c-3.8-2.6-9-1.6-11.6,2.2c-2.6,3.8-1.6,9,2.2,11.6C308.9,135.9,314.1,134.9,316.7,131.1z M360,35.6
	c4.5,3,10.6,1.9,13.6-2.6c3-4.5,1.9-10.6-2.6-13.6c-4.5-3-10.6-1.9-13.6,2.6C354.4,26.4,355.6,32.5,360,35.6z M423.6,35.5
	c2,1.4,4.8,0.8,6.2-1.2c1.4-2,0.8-4.8-1.2-6.2c-2-1.4-4.8-0.8-6.2,1.2C421.1,31.4,421.6,34.2,423.6,35.5z M384,5.9
	c1.2-1.7,0.7-4.1-1-5.2c-1.7-1.2-4.1-0.7-5.2,1c-1.2,1.7-0.7,4.1,1,5.2C380.5,8,382.9,7.6,384,5.9z M353.5,11.3
	c0.8-1.2,0.5-2.8-0.7-3.7c-1.2-0.8-2.8-0.5-3.7,0.7c-0.8,1.2-0.5,2.8,0.7,3.7C351.1,12.8,352.7,12.5,353.5,11.3z M321.8,9
	c0.9-1.4,0.6-3.2-0.8-4.2c-1.4-0.9-3.2-0.6-4.2,0.8c-0.9,1.4-0.6,3.2,0.8,4.2C319,10.7,320.9,10.4,321.8,9z M277.4,115.6
	c-1.2,1.7-0.7,4.1,1,5.2c1.7,1.2,4.1,0.7,5.2-1s0.7-4.1-1-5.2C280.9,113.4,278.5,113.8,277.4,115.6z M299.4,144.5
	c-2-1.3-4.7-0.8-6,1.2c-1.3,2-0.8,4.7,1.2,6c2,1.3,4.7,0.8,6-1.2C301.9,148.5,301.4,145.8,299.4,144.5z M316.2,169.8
	c-2-1.3-4.7-0.8-6,1.2c-1.3,2-0.8,4.7,1.2,6c2,1.3,4.7,0.8,6-1.2C318.7,173.8,318.2,171.1,316.2,169.8z M464,181.8
	c-1.2-1.2-2.2-2.4-3.3-3.6c-6.2-6.8-12.4-13.5-21.4-16.5c-4.7-2-9.4-1.2-14.1,0c-0.1,0-0.3,0-0.4,0.1c-4.8,2.3-10.1,3.6-15.7,3.6
	c-0.1,0-0.2,0-0.2,0c-0.3,0-0.7,0-1,0c-3.1-0.1-6.1-0.6-9-1.4c0,0,0,0,0,0c0,0,0,0,0,0c-12.1-3.5-21.6-13.1-25.1-25.2
	c-0.2-0.5-0.3-1.1-0.4-1.6c-0.6-2.7-1-5.5-1-8.4c0-0.6,0.1-1.1,0.1-1.7c-0.1-0.1-0.1-0.3-0.2-0.4c0.1-0.5,0.2-1,0.3-1.5
	c0.3-3.1,1-6,2-8.8c0.1-0.2,0.1-0.3,0.2-0.5c0.7-1.9,1.6-3.7,2.6-5.4c0-0.1,0-0.1,0-0.2c0.3-0.6,0.7-1.1,1.1-1.7
	c0.1-0.2,0.3-0.4,0.4-0.6c0.6-0.8,1.1-1.6,1.8-2.4c0.2-0.2,0.4-0.5,0.6-0.7c0.5-0.6,0.9-1.2,1.5-1.7c0,0,0.1,0,0.1,0
	c1.8-1.9,3.9-3.6,6.1-5.1c0.2-0.2,0.4-0.3,0.6-0.5c0.1,0,0.1,0,0.1,0c4-2.5,8.6-4.3,13.5-5.1c0.7-0.1,1.4-0.2,2-0.3
	c0.2,0,0.3,0,0.5-0.1c2.3-0.2,4.5-0.2,6.8,0c0.4,0,0.8,0.1,1.2,0.1c0.2,0,0.4,0.1,0.6,0.1c2.9,0.4,5.8,1.2,8.5,2.2
	c5.1,1.5,10.4,2.4,15.8,1c2-0.5,5.6-2.1,6-2.3c7.9-5,14.2-11.6,19.9-18.9c1.1-1.4,0.7-2.1-0.6-3.3c-4.4-4.2-9.5-7.5-14.5-11
	c-2.7-1.6-5.4-3-8.2-4.2c-0.1,0-0.2-0.1-0.3-0.1c-0.1-0.1-0.2-0.1-0.3-0.2c-2.4-1-4.9-2-7.5-2.8c-1.5-0.4-3.1-0.9-4.6-1.3
	c-6.1-1.5-12.5-2.3-19.1-2.3c-0.4,0-0.8,0-1.2,0c-0.4,0-0.8,0-1.2,0c-0.5,0-1,0-1.5,0c-1.3,0-2.7,0.2-3.5-1.3c-0.9-1.6,0-2.8,0.8-4
	c0.4-0.8,1-1.3,1.7-1.8c0.7-0.4,1.4-1,2.1-1.5c0,0,0,0,0,0c0,0,0,0,0,0c0.5-0.4,0.9-0.8,1.4-1.3c0.3-0.3,0.5-0.6,0.8-1
	c0.3-0.3,0.5-0.6,0.7-1c0.5-0.7,0.8-1.4,1.2-2.2c0.1-0.3,0.2-0.7,0.4-1c0.2-0.5,0.4-1,0.5-1.6c0.1-0.4,0.2-0.8,0.2-1.2
	c0.1-0.6,0.2-1.2,0.2-1.8c0-0.3,0.1-0.5,0.1-0.8c0-0.1,0-0.2,0-0.3c0-0.5-0.1-1.1-0.2-1.6c-0.9-7.7-7.5-13.8-15.4-13.8
	c-8.6,0-15.6,7-15.6,15.6c0,7.3,5.1,13.5,11.9,15.1c1.8,0.8,3.1,2.1,3.1,4.1c0,2.2-1.7,3-3.5,3.6c-2.7,1.2-5.4,1.9-8,0
	c-3.5-5.6-9.7-9.3-16.9-9.3c-11,0-19.9,8.9-19.9,19.9c0,4.1,1.3,8,3.4,11.2c0,0,0,0.1,0,0.1c0.2,0.5,0.3,1,0.3,1.6
	c0,2.1-1.7,3.9-3.9,3.9c-0.3,0-0.5-0.1-0.8-0.2c-0.1,0-0.2,0-0.3,0.1c-1.9-0.5-3.9-0.8-6-0.8c-6.5,0-12.4,2.7-16.6,7.1
	c-1.6,1.3-3.4,2.2-5.6,1.5c-5.3-1.7-9.2-4.8-10.1-10.7c-0.3-0.5-0.5-1.1-0.7-1.6c-0.2-0.6-0.4-1.1-0.7-1.7c0-0.1-0.1-0.1-0.1-0.2
	c-2.8-5.8-8.8-9.9-15.7-9.9c-9.7,0-17.5,7.8-17.5,17.5c0,9.7,7.8,17.5,17.5,17.5c1.9,0,3.7-0.3,5.5-0.9c1.6-0.5,3.2-1.1,4.6-2.1
	c7-4.4,15.3-0.5,16.3,7.6c0,0.4,0.1,0.7,0.2,1.1c0.7,6.7,4.3,12.4,9.4,16.2c0.2,0.1,0.3,0.2,0.5,0.3c0.2,0.2,0.4,0.3,0.6,0.5
	c0.1,0,0.1,0.1,0.2,0.1c0,0,0,0,0,0.1c3.1,2.8,3.8,7.5,1.4,11c-0.4,0.6-0.9,1.1-1.4,1.6c-0.1,0.1-0.1,0.1-0.2,0.2
	c-0.2,0.1-0.3,0.2-0.5,0.3c-0.3,0.2-0.6,0.4-0.9,0.6c0,0,0,0,0,0c0,0-0.1,0-0.1,0.1c-0.3,0.2-0.6,0.3-0.9,0.4
	c-4.8,2.4-8.1,7.3-8.1,12.9c0,8,6.5,14.5,14.5,14.5c0.1,0,0.2,0,0.3,0c0,0,0,0,0.1,0c2.6,0.2,5.1,0.7,6.5,3.4
	c0.5,1.1,1.1,2.1,1.7,3.1c9.2,15.8,23.6,28.1,40.9,34.6c1.3,0.4,2.6,0.8,4,1.1c2.1,1.1,4.7,0.9,6.7,2.1c0.5,0.1,1,0.2,1.4,0.2
	c0.2,0.1,0.4,0.1,0.6,0.2c1.6,0.3,3.3,0.6,5,0.8c0.7,0,1.3,0.1,2,0.2c1.2,0.2,2.4,0.2,3.7,0.3c1.5,0.1,3,0.2,4.5,0.2
	c3.5,0,6.9-0.2,10.3-0.7c1.7-0.3,3.4-0.6,5.1-1c0.7,0,1.3-0.1,1.9-0.2c0.6-0.1,1.1-0.3,1.7-0.4c2-0.6,3.9-1.3,5.9-1.8
	c1.1-0.8,2.5-0.8,3.8-1.4c3.1-1.4,6.2-2.7,9.2-4.2c5.9-3,10.9-7.2,16-11.3c0.8-0.7,1.6-1.5,2.3-2.2C465.9,183.9,465,182.6,464,181.8
	z"/>
</svg>
